<svg xmlns="http://www.w3.org/2000/svg" version="1.1" xmlns:xlink="http://www.w3.org/1999/xlink" xmlns:svgjs="http://svgjs.dev/svgjs" width="100%" height="100%" viewBox="0 0 1000 600"><rect width="1000" height="600" x="0" y="0" fill="#191919"/><g><circle r="166.66666666666666" cx="384.79609171549475" cy="407.0182180899757" fill="#c05000" transform="matrix(0.5730544477341067,0,0,0.5730544477341067,0,66.75638858536863)"/><path d="M428.2642520257506 334.2633299760593L428.2642520257506 334.2633299760593L428.2642520257506 338.3557893355833Q424.3991515195334 339.1799651788208 419.6814553134154 342.95980611504785Q414.9637591072975 346.7680669079383 412.1217734409613 356.17503946351087L412.1217734409613 356.17503946351087L373.4423485221266 480.17087408575605Q373.0160506721762 480.17087408575605 372.6181726788892 480.17087408575605Q372.2202946856021 480.17087408575605 371.7939968356517 480.17087408575605L371.7939968356517 480.17087408575605Q371.3961188423647 480.17087408575605 370.9698209924142 480.17087408575605Q370.57194299912715 480.17087408575605 370.17406500584013 480.17087408575605L370.17406500584013 480.17087408575605L326.7769438808874 351.4573432573929Q324.13389721119484 343.47136353498837 320.83719383824496 341.0272558619393Q317.5689103219584 338.5831481888902 314.6985047989589 338.3557893355833L314.6985047989589 338.3557893355833L314.6985047989589 334.2633299760593Q318.3930861651959 334.4906888293662 323.90653835788794 334.68962782600977Q329.4484104072434 334.8885668226533 334.56398460664843 334.8885668226533L334.56398460664843 334.8885668226533Q342.54996432905295 334.8885668226533 349.4844093549131 334.68962782600977Q356.4472742374366 334.4906888293662 360.7386725936042 334.2633299760593L360.7386725936042 334.2633299760593L360.7386725936042 338.3557893355833Q354.59998355431816 338.5831481888902 351.0190816147346 339.6062630287712Q347.4381796751511 340.6293778686522 346.9266222552106 344.09660038158233Q346.4150648352701 347.5638228945124 348.8875923649825 355.5498026169169L348.8875923649825 355.5498026169169L379.3820985647692 449.87530688261296L376.5116930417697 452.34783441232537L403.5105568719629 367.4293027022019Q407.2051382381999 356.17503946351087 406.8925198149029 349.92267099757134Q406.57990139160586 343.69872238829527 402.28850303543834 341.14093528859274Q397.9971046792708 338.5831481888902 389.38588811027233 338.3557893355833L389.38588811027233 338.3557893355833L389.38588811027233 334.2633299760593Q395.32563815291485 334.4906888293662 401.46432719220087 334.68962782600977Q407.6030162314869 334.8885668226533 412.91752942753544 334.8885668226533L412.91752942753544 334.8885668226533Q418.2604624802474 334.8885668226533 421.7276849931775 334.68962782600977Q425.1949075061075 334.4906888293662 428.2642520257506 334.2633299760593ZM285.25553329571665 334.2633299760593L285.25553329571665 334.2633299760593L285.25553329571665 338.3557893355833Q279.9126002430047 338.7820871855338 277.5821719966091 340.40201901534533Q275.2233238935501 342.05037070182027 275.3085834635402 345.6312726414038Q275.4222628901936 349.2121745809874 277.46849256995563 355.5498026169169L277.46849256995563 355.5498026169169L309.1850526062668 452.34783441232537L304.0694784068618 457.4634086117304L332.71669392353 365.9798900123705L335.78603844317297 370.896525215132L302.02324872709977 480.17087408575605Q301.6253707338127 480.17087408575605 301.1990728838623 480.17087408575605Q300.80119489057523 480.17087408575605 300.37489704062483 480.17087408575605L300.37489704062483 480.17087408575605Q299.97701904733776 480.17087408575605 299.5791410540507 480.17087408575605Q299.1528432041003 480.17087408575605 298.7549652108132 480.17087408575605L298.7549652108132 480.17087408575605L255.35784408586056 351.4573432573929Q252.71479741616798 343.47136353498837 248.62233805664394 341.0272558619393Q244.52987869711993 338.5831481888902 241.26159518083338 338.3557893355833L241.26159518083338 338.3557893355833L241.26159518083338 334.2633299760593Q245.3540545403574 334.4906888293662 251.37906415299 334.68962782600977Q257.40407376562257 334.8885668226533 263.1448848116216 334.8885668226533L263.1448848116216 334.8885668226533Q269.90881069750156 334.8885668226533 275.73488131349063 334.68962782600977Q281.56095192947964 334.4906888293662 285.25553329571665 334.2633299760593ZM480.24416986303834 332.0181612996538L480.24416986303834 332.0181612996538Q490.4753182618484 332.0181612996538 495.7898314578969 334.37700940271276Q501.13276451060887 336.7358575057717 505.2252238701329 339.6062630287712L505.2252238701329 339.6062630287712Q507.66933154318195 341.0272558619393 509.20400380300345 341.7377522785233Q510.73867606282494 342.44824869510734 512.159668895993 342.44824869510734L512.159668895993 342.44824869510734Q514.2058985757551 342.44824869510734 515.143753845646 340.2030800187018Q516.0531892588735 337.95791134229626 516.6784261054675 333.46757398948523L516.6784261054675 333.46757398948523L521.367702454922 333.46757398948523Q521.1687634582786 336.9347965024153 520.8561450349816 341.7377522785233Q520.571946468348 346.5407080546314 520.4582670416944 354.4414282070458Q520.3445876150411 362.3137285027969 520.3445876150411 375.18792357129956L520.3445876150411 375.18792357129956L515.6553112655865 375.18792357129956Q515.0300744189924 365.38307302243993 511.36391290941896 356.3739784601544Q507.66933154318195 347.3648838978689 500.6212070906684 341.65249270853326Q493.54466278149135 335.9116816625343 482.0914605461567 335.9116816625343L482.0914605461567 335.9116816625343Q471.2350753007528 335.9116816625343 464.1869508482392 342.44824869510734Q457.1388263957256 349.0132355843438 457.1388263957256 359.6422619764409L457.1388263957256 359.6422619764409Q457.1388263957256 368.85029553537 461.8281027451802 375.10266400130945Q466.54579895129814 381.3266126105856 474.41809924704927 386.3569272400005Q482.29039954280034 391.3588220127521 491.49843310172935 397.09963305875107L491.49843310172935 397.09963305875107Q502.1558793504899 403.63620009132416 510.426057639528 410.0875075539072Q518.7246557852295 416.53881501649016 523.5276115613374 424.2974358855878Q528.3305673374457 432.0844766113488 528.3305673374457 443.1398008533963L528.3305673374457 443.1398008533963Q528.3305673374457 456.2413547752059 522.3908172948031 464.82415148754103Q516.4794871088241 473.40694819987607 506.6462167033009 477.726766412707Q496.81294629777796 482.01816476887456 484.9618660691563 482.01816476887456L484.9618660691563 482.01816476887456Q474.10548082375226 482.01816476887456 467.7678527878227 479.54563723916215Q461.43022475189315 477.1015295661131 456.9114675424187 474.4300630397571L456.9114675424187 474.4300630397571Q452.42113018960765 471.588077373421 449.9770225165586 471.588077373421L449.9770225165586 471.588077373421Q447.9307928367965 471.588077373421 446.9929375669056 473.83324604982647Q446.08350215367807 476.07841472623204 445.4582653070841 480.5687520790431L445.4582653070841 480.5687520790431L440.7689889576295 480.5687520790431Q441.1668669509165 476.27735372287555 441.28054637757 470.45128310688654Q441.3658059475601 464.62521249089747 441.47948537421354 455.21823993532485Q441.56474494420365 445.78284752308895 441.56474494420365 431.45923976475484L441.56474494420365 431.45923976475484L446.2824411503216 431.45923976475484Q447.1066169935591 443.73661784332694 450.88645792978616 454.39406409208743Q454.6662988660132 465.02309048418454 462.53859916176424 471.47439794676757Q470.43931931417865 477.92570540935054 483.5124533793249 477.92570540935054L483.5124533793249 477.92570540935054Q490.27637926520487 477.92570540935054 496.30138887783744 475.16897931300446Q502.3548183471334 472.3838333599951 506.2483387100138 466.3588237473625Q510.11343921623103 460.3338141347299 510.11343921623103 450.69948272585043L510.11343921623103 450.69948272585043Q510.11343921623103 442.3156250101589 506.13465928336046 436.06325654421937Q502.1558793504899 429.83930793494324 494.9940754713228 424.41111531224124Q487.8322715921558 418.98292268953924 478.19794018327633 413.2705315002037L478.19794018327633 413.2705315002037Q468.5920286310602 407.33078145756116 460.2081709153686 401.19209241827514Q451.7958933430137 395.05340337898906 446.79399857026203 386.9537442299311Q441.7921037975105 378.8825049375365 441.7921037975105 367.4293027022019L441.7921037975105 367.4293027022019Q441.7921037975105 355.35086362027334 447.19187656354916 347.47856332452227Q452.62006918625116 339.6062630287712 461.43022475189315 335.79800223588086Q470.2119604608718 332.0181612996538 480.24416986303834 332.0181612996538Z " fill="#191919" transform="matrix(0.5730544477341067,0,0,0.5730544477341067,0,66.75638858536863)"/><path d="M806.1502399017786 346.26294927144966L806.1502399017786 346.26294927144966L806.1502399017786 350.01294912243804Q802.6085733758451 350.76815742576207 798.2856568809558 354.2316989548Q793.9627403860663 357.72128214946974 791.35857382288 366.3410734736167L791.35857382288 366.3410734736167L755.9158668979132 479.9608606254386Q755.5252419134354 479.9608606254386 755.1606585945892 479.9608606254386Q754.7960752757432 479.9608606254386 754.4054502912652 479.9608606254386L754.4054502912652 479.9608606254386Q754.040866972419 479.9608606254386 753.6502419879412 479.9608606254386Q753.285658669095 479.9608606254386 752.921075350249 479.9608606254386L752.921075350249 479.9608606254386L713.1554519303929 362.0181569787273Q710.7335770266295 354.70044893617353 707.7127438133333 352.46086569183325Q704.717952265669 350.22128244749297 702.0877440368507 350.01294912243804L702.0877440368507 350.01294912243804L702.0877440368507 346.26294927144966Q705.4731605689931 346.4712825965046 710.5252437015746 346.6535742559276Q715.6033684997881 346.83586591535067 720.2908683135236 346.83586591535067L720.2908683135236 346.83586591535067Q727.6085763560773 346.83586591535067 733.962742770252 346.6535742559276Q740.3429508500587 346.4712825965046 744.2752423604702 346.26294927144966L744.2752423604702 346.26294927144966L744.2752423604702 350.01294912243804Q738.6502425839876 350.22128244749297 735.3689927143728 351.15878241024006Q732.0877428447578 352.09628237298716 731.6189928633843 355.27336558007454Q731.1502428820108 358.4504487871619 733.4158677919829 365.7681568297157L733.4158677919829 365.7681568297157L761.3585750149729 452.2004450618718L758.7283667861545 454.4660699718439L783.4679491364252 376.65357306383476Q786.8533656685676 366.3410734736167 786.5669073466171 360.61190703460665Q786.2804490246665 354.90878226122845 782.348157514255 352.5650323543607Q778.4158660038437 350.22128244749297 770.5252413173889 350.01294912243804L770.5252413173889 350.01294912243804L770.5252413173889 346.26294927144966Q775.9679494344484 346.4712825965046 781.592949210931 346.6535742559276Q787.2179489874136 346.83586591535067 792.0877404605721 346.83586591535067L792.0877404605721 346.83586591535067Q796.9835735993626 346.83586591535067 800.16065680645 346.6535742559276Q803.3377400135373 346.4712825965046 806.1502399017786 346.26294927144966ZM675.1085784422398 346.26294927144966L675.1085784422398 346.26294927144966L675.1085784422398 350.01294912243804Q670.2127453034493 350.40357410691604 668.0773287216366 351.88794904793224Q665.9158704741918 353.39836565458035 665.9939954710874 356.6796155241952Q666.0981621336149 359.96086539381 667.9731620591091 365.7681568297157L667.9731620591091 365.7681568297157L697.0356609042692 454.4660699718439L692.3481610905337 459.1535697855794L718.5981600474524 375.3254481166097L721.4106599356937 379.83065627092213L690.4731611650394 479.9608606254386Q690.1085778461934 479.9608606254386 689.7179528617154 479.9608606254386Q689.3533695428694 479.9608606254386 688.9627445583914 479.9608606254386L688.9627445583914 479.9608606254386Q688.5981612395453 479.9608606254386 688.2335779206992 479.9608606254386Q687.8429529362212 479.9608606254386 687.4783696173752 479.9608606254386L687.4783696173752 479.9608606254386L647.712746197519 362.0181569787273Q645.2908712937557 354.70044893617353 641.5408714427673 352.46086569183325Q637.7908715917789 350.22128244749297 634.7960800441145 350.01294912243804L634.7960800441145 350.01294912243804L634.7960800441145 346.26294927144966Q638.5460798951029 346.4712825965046 644.066913009058 346.6535742559276Q649.5877461230132 346.83586591535067 654.8481625806497 346.83586591535067L654.8481625806497 346.83586591535067Q661.0460790010334 346.83586591535067 666.3846204555654 346.6535742559276Q671.7231619100975 346.4712825965046 675.1085784422398 346.26294927144966ZM843.8585717367175 379.83065627092213L843.8585717367175 379.83065627092213Q860.3429460816874 379.83065627092213 869.6398207122627 389.8566975391897Q878.9106536772063 399.90878047308917 878.9106536772063 421.08065463179446L878.9106536772063 421.08065463179446L812.7127396410083 421.08065463179446L812.5304479815853 417.51294644022914L860.9158627255883 417.51294644022914Q861.2804460444344 408.3462801378131 859.4054461189403 400.5598221138858Q857.530446193446 392.7733640899585 853.4939880205071 388.085864276223Q849.4835715132001 383.3983644624875 843.1033634333935 383.3983644624875L843.1033634333935 383.3983644624875Q834.4835721092466 383.3983644624875 827.8169057074894 392.01815578663445Q821.1502393057323 400.6379471107814 819.848156024139 419.38794636572334L819.848156024139 419.38794636572334L820.4210726680401 420.14315466904736Q820.0304476835621 422.95565455728865 819.848156024139 426.34107108943095Q819.665864364716 429.7004459559414 819.665864364716 433.0858624880837L819.665864364716 433.0858624880837Q819.665864364716 445.846278647697 823.7804475345505 455.0129449501131Q827.9210723700169 464.20565291816104 834.5616971061421 468.9973193944239Q841.2283635078993 473.762944205055 848.3377382253981 473.762944205055L848.3377382253981 473.762944205055Q853.9627380018807 473.762944205055 859.0408628000941 471.9921109420883Q864.0929459326758 470.22127767912156 868.4158624275651 466.08065284365523Q872.7127372568226 461.9660696738207 875.9158621295419 455.0129449501131L875.9158621295419 455.0129449501131L879.6658619805303 456.5233615567612Q877.608570395613 462.7212779771448 872.9210705818775 468.5285694130504Q868.233570768142 474.33586084895603 861.0981543850114 477.981694037417Q853.9627380018807 481.6535688915098 844.5877383744097 481.6535688915098L844.5877383744097 481.6535688915098Q831.0981555771042 481.6535688915098 821.4366976276827 475.4556524711262Q811.7752396782612 469.28377771637446 806.6189898831522 458.2941948197279Q801.4627400880431 447.33065358871323 801.4627400880431 433.0858624880837L801.4627400880431 433.0858624880837Q801.4627400880431 416.57544647748205 806.7231565456797 404.67440528372026Q811.9835730033162 392.7733640899585 821.5408642902102 386.31503101325626Q831.0981555771042 379.83065627092213 843.8585717367175 379.83065627092213ZM948.8585675643925 379.83065627092213L948.8585675643925 379.83065627092213Q964.2231502871922 379.83065627092213 974.3533582179872 392.486905768008Q984.4835661487823 405.1431552650938 984.4835661487823 430.8462792437434L984.4835661487823 430.8462792437434Q984.4835661487823 447.7212785731912 978.7543997097723 459.049403123052Q973.0252332707622 470.40356933854457 963.4679419838681 476.0285691150272Q953.9106506969741 481.6535688915098 942.6606511440089 481.6535688915098L942.6606511440089 481.6535688915098Q933.2856515165379 481.6535688915098 924.5616935298635 476.31502743697774Q915.8377355431892 470.9504443168138 911.5408607139316 460.45565306717265L911.5408607139316 460.45565306717265L915.29086056492 462.51294465208986Q919.9783603786556 470.0129443540667 926.9054434367313 473.68481920815947Q933.858568160439 477.3306523966204 941.1502345373608 477.3306523966204L941.1502345373608 477.3306523966204Q953.7283590375512 477.3306523966204 960.0044004548303 466.0025278467596Q966.2804418721095 454.648361631267 966.2804418721095 430.8462792437434L966.2804418721095 430.8462792437434Q966.2804418721095 415.63794651473495 963.8585669683462 405.53378024957175Q961.410650398951 395.40357231877675 956.3585672663694 390.42961418309073Q951.2804424681559 385.4556560474047 943.415859447333 385.4556560474047L943.415859447333 385.4556560474047Q934.796068123186 385.4556560474047 927.3741934181048 393.242114071332Q919.9783603786556 401.02857209525934 918.2856521125843 416.0285714992129L918.2856521125843 416.0285714992129L916.0460688682441 413.39836327039467Q918.1033604531614 397.46086390369396 927.1919017586818 388.658780920124Q936.2804430642022 379.83065627092213 948.8585675643925 379.83065627092213ZM919.5877353941776 332.2004498302432L919.5877353941776 332.2004498302432L919.5877353941776 469.28377771637446Q917.1658604904142 471.34106930129167 914.6398189241233 473.5025275487364Q912.0877356922008 475.6379441305493 909.6658607884374 477.7212773810984Q907.2179442190422 479.7785689660156 904.587735990224 482.0181522103559L904.587735990224 482.0181522103559L901.4106527831366 480.7160689287627Q902.1658610864606 478.0858606999444 902.4523194084111 475.37752747423065Q902.7127360647298 472.6431525828849 902.7127360647298 469.8306526946436L902.7127360647298 469.8306526946436L902.7127360647298 354.70044893617353Q902.7127360647298 346.26294927144966 899.7179445170655 342.25253276414264Q896.7231529694011 338.2160745912037 888.4679449641003 338.2160745912037L888.4679449641003 338.2160745912037L888.4679449641003 334.2837830807923Q894.4835697250608 334.8306580590614 900.1085695015433 334.8306580590614L900.1085695015433 334.8306580590614Q905.5252359529711 334.8306580590614 910.4991940886571 334.1796164182648Q915.473152224343 333.52857477746824 919.5877353941776 332.2004498302432ZM1041.2804388918773 344.2056576865324L1041.2804388918773 344.2056576865324Q1050.6554385193483 344.2056576865324 1055.5252299925069 346.3671159339771Q1060.4210631312972 348.5285741814218 1064.1710629822855 351.15878241024006L1064.1710629822855 351.15878241024006Q1066.4106462266259 352.46086569183325 1067.8168961707465 353.1119073326298Q1069.2231461148672 353.76294897342643 1070.5252293964604 353.76294897342643L1070.5252293964604 353.76294897342643Q1072.4002293219546 353.76294897342643 1073.2596042878063 351.70565738850917Q1074.0929375880257 349.64836580359196 1074.6658542319267 345.5337826337575L1074.6658542319267 345.5337826337575L1078.9627290611843 345.5337826337575Q1078.7804374017614 348.71086584084486 1078.4939790798107 353.1119073326298Q1078.233562423492 357.5129488244148 1078.1293957609646 364.75253187007297Q1078.0252290984372 371.96607325009927 1078.0252290984372 383.7629477813336L1078.0252290984372 383.7629477813336L1073.7283542691798 383.7629477813336Q1073.1554376252786 374.77857313834056 1069.7960627587681 366.5233651330397Q1066.4106462266259 358.2681571277389 1059.9523131499236 353.03378233573426Q1053.4679384075896 347.77336587809776 1042.9731471579485 347.77336587809776L1042.9731471579485 347.77336587809776Q1033.0252308865765 347.77336587809776 1026.5668978098743 353.76294897342643Q1020.108564733172 359.778573734387 1020.108564733172 369.51815668070407L1020.108564733172 369.51815668070407Q1020.108564733172 377.95565634542794 1024.4054395624296 383.684822784438Q1028.728356057319 389.3879475578162 1035.9418974373452 393.99732237465605Q1043.1554388173715 398.58065552586413 1051.5929384820954 403.8410719835006L1051.5929384820954 403.8410719835006Q1061.3585630940443 409.8306550788293 1068.9366877929167 415.7421131772624Q1076.5408541574209 421.65357127569547 1080.941895649206 428.7629459931943Q1085.342937140991 435.898362376325 1085.342937140991 446.02857030712005L1085.342937140991 446.02857030712005Q1085.342937140991 458.0337781634093 1079.9002290239314 465.89836118423216Q1074.4835625725036 473.762944205055 1065.4731462638788 477.7212773810984Q1056.462729955254 481.6535688915098 1045.6033553867667 481.6535688915098L1045.6033553867667 481.6535688915098Q1035.6554391153948 481.6535688915098 1029.848147679489 479.38794398153766Q1024.0408562435834 477.1483607371973 1019.9002314081172 474.7004441678022L1019.9002314081172 474.7004441678022Q1015.7856482382826 472.0962776046158 1013.5460649939423 472.0962776046158L1013.5460649939423 472.0962776046158Q1011.6710650684481 472.0962776046158 1010.8116901025967 474.153569189533Q1009.978356802377 476.2108607744502 1009.405440158476 480.32544394428476L1009.405440158476 480.32544394428476L1005.1085653292184 480.32544394428476Q1005.4731486480646 476.3931524338733 1005.577315310592 471.0546109793412Q1005.6554403074877 465.7160695248091 1005.759606970015 457.0962782006622Q1005.8377319669106 448.4504452108834 1005.8377319669106 435.325445732424L1005.8377319669106 435.325445732424L1010.1606484618001 435.325445732424Q1010.9158567651241 446.5754452853892 1014.379398294162 456.3410698973381Q1017.8429398231999 466.08065284365523 1025.0564812032262 471.9921109420883Q1032.2960642488842 477.9035690405214 1044.2752304395417 477.9035690405214L1044.2752304395417 477.9035690405214Q1050.4731468599252 477.9035690405214 1055.9939799738804 475.37752747423065Q1061.5408547534676 472.825444242308 1065.1085629450329 467.3046111283528Q1068.6502294709662 461.7837780143977 1068.6502294709662 452.9556533651958L1068.6502294709662 452.9556533651958Q1068.6502294709662 445.273362003796 1065.0043962825052 439.544195564786Q1061.3585630940443 433.8410707914078 1054.7960633548146 428.86711265572177Q1048.233563615585 423.89315452003575 1039.4054389663831 418.65877972803116L1039.4054389663831 418.65877972803116Q1030.6033559828134 413.2160716109716 1022.9210646214133 407.591071834489Q1015.2127315943817 401.96607205800643 1010.6293984431736 394.5441973529252Q1006.0460652919655 387.1483643134759 1006.0460652919655 376.65357306383476L1006.0460652919655 376.65357306383476Q1006.0460652919655 365.5858651702926 1010.9939817620198 358.37232379026636Q1015.9679398977057 351.15878241024006 1024.0408562435834 347.6691992155703Q1032.0877309238294 344.2056576865324 1041.2804388918773 344.2056576865324ZM1130.1606436934287 351.3410740696631L1130.1606436934287 351.3410740696631L1130.1606436934287 382.6431561591635L1157.9210592569955 382.6431561591635L1157.9210592569955 386.39315601015187L1130.1606436934287 386.39315601015187L1130.1606436934287 458.9712781261564Q1130.1606436934287 467.77336110972635 1133.337726900516 471.34106930129167Q1136.5408517732353 474.90877749285704 1142.165851549718 474.90877749285704L1142.165851549718 474.90877749285704Q1147.7908513262005 474.90877749285704 1151.905434496035 470.29940267601717Q1156.0460593315013 465.7160695248091 1159.0408508791656 454.83065329069L1159.0408508791656 454.83065329069L1162.790850730154 455.76815325343716Q1160.9158508046598 466.6535694875562 1155.3689760250727 474.153569189533Q1149.8481429111175 481.6535688915098 1138.4158516987295 481.6535688915098L1138.4158516987295 481.6535688915098Q1132.0356436189227 481.6535688915098 1127.9210604490884 480.06502728796613Q1123.780435613622 478.45044401879056 1120.6033524065347 475.4556524711262L1120.6033524065347 475.4556524711262Q1116.4627275710682 471.15877764186865 1114.8741859675247 465.14315288090813Q1113.285644363981 459.1535697855794 1113.285644363981 449.2056535142074L1113.285644363981 449.2056535142074L1113.285644363981 386.39315601015187L1095.290853412363 386.39315601015187L1095.290853412363 382.6431561591635L1113.285644363981 382.6431561591635L1113.285644363981 353.97128229848136Q1117.9731441777162 353.76294897342643 1122.2960606726058 353.2160739951573Q1126.5929355018634 352.64315735125626 1130.1606436934287 351.3410740696631ZM1192.9731411974842 480.32544394428476L1192.9731411974842 480.32544394428476Q1185.2908498360844 480.32544394428476 1179.6658500596018 477.43481905914786Q1174.0408502831192 474.5181525083791 1171.1241837323505 469.28377771637446Q1168.2335588472135 464.02336125873796 1168.2335588472135 457.0962782006622L1168.2335588472135 457.0962782006622Q1168.2335588472135 448.84107019536134 1172.0616836950976 443.58065373772484Q1175.9158502086134 438.3462789457202 1181.9054333039421 435.14315407300097Q1187.9210580649028 431.9660708659136 1194.561682801028 429.80461261846887Q1201.228349202785 427.64315437102414 1207.2179322981137 425.6900294486344Q1213.2335570590744 423.71086286061274 1217.0616819069583 421.08065463179446Q1220.915848420474 418.45044640297624 1220.915848420474 414.1535715737187L1220.915848420474 414.1535715737187L1220.915848420474 402.5129470362756Q1220.915848420474 394.64836401545267 1218.5720985136063 390.5337808456182Q1216.2283486067386 386.39315601015187 1212.2960570963273 384.98690606603117Q1208.337723920284 383.5806561219105 1203.4679324471253 383.5806561219105L1203.4679324471253 383.5806561219105Q1198.7804326333899 383.5806561219105 1193.441891178858 384.9087810691356Q1188.1033497243257 386.2108643507288 1184.9002248516065 390.3254475205633L1184.9002248516065 390.3254475205633Q1188.4679330431718 391.08065582388735 1191.09814127199 394.07544737155166Q1193.7283495008082 397.0962805848479 1193.7283495008082 401.78378039858336L1193.7283495008082 401.78378039858336Q1193.7283495008082 406.47128021231885 1190.733557953144 409.1796134380327Q1187.7127247398478 411.88794666374656 1183.0252249261123 411.88794666374656L1183.0252249261123 411.88794666374656Q1177.6085584746845 411.88794666374656 1175.056475242762 408.42440513470865Q1172.5304336764711 404.96086360567074 1172.5304336764711 400.6379471107814L1172.5304336764711 400.6379471107814Q1172.5304336764711 395.76815563762284 1174.9783502458663 392.7733640899585Q1177.4002251496297 389.7785725422941 1181.150225000618 387.1483643134759L1181.150225000618 387.1483643134759Q1185.4731414955074 384.15357276581153 1192.3220995566876 381.99211451836686Q1199.171057617868 379.83065627092213 1207.7908489420147 379.83065627092213L1207.7908489420147 379.83065627092213Q1215.4731403034145 379.83065627092213 1220.915848420474 381.6275311995208Q1226.3585565375338 383.3983644624875 1229.9002230634674 386.7837809946298L1229.9002230634674 386.7837809946298Q1234.7960562022577 391.26294748331037 1236.2804311432737 397.7473222256445Q1237.790847749922 404.2056553023467 1237.790847749922 413.2160716109716L1237.790847749922 413.2160716109716L1237.790847749922 465.32544454033115Q1237.790847749922 470.0129443540667 1239.1970976940424 472.0962776046158Q1240.603347638163 474.153569189533 1243.5981391858274 474.153569189533L1243.5981391858274 474.153569189533Q1245.655430770745 474.153569189533 1247.5304306962391 473.2160692267859Q1249.405430621733 472.27856926403877 1252.0356388505513 470.22127767912156L1252.0356388505513 470.22127767912156L1254.0929304354688 473.39836088620893Q1250.1606389250571 476.3931524338733 1246.592930733492 478.37231902189495Q1243.0252225419265 480.32544394428476 1237.035639446598 480.32544394428476L1237.035639446598 480.32544394428476Q1231.5929313295383 480.32544394428476 1228.0252231379732 478.45044401879056Q1224.4835566120396 476.57544409329637 1222.6866816834408 472.9296109048354Q1220.915848420474 469.28377771637446 1220.915848420474 463.6587779398919L1220.915848420474 463.6587779398919Q1215.8377236222607 472.0962776046158 1208.8064739016575 476.2108607744502Q1201.7752241810542 480.32544394428476 1192.9731411974842 480.32544394428476ZM1199.717932596137 472.825444242308L1199.717932596137 472.825444242308Q1205.9158490165205 472.825444242308 1211.2543904710528 469.28377771637446Q1216.5929319255847 465.7160695248091 1220.915848420474 458.58065314167845L1220.915848420474 458.58065314167845L1220.915848420474 421.83586293511854Q1218.650223510502 425.0129461422059 1214.3533486812444 427.17440438965065Q1210.030432186355 429.3358626370953 1204.9783490537734 431.49732088454004Q1199.90022425556 433.6587791319847 1195.316891104352 436.5494040171216Q1190.733557953144 439.46607056789037 1187.7127247398478 444.15357038162585Q1184.7179331921834 448.84107019536134 1184.7179331921834 456.3410698973381L1184.7179331921834 456.3410698973381Q1184.7179331921834 463.8410695993149 1188.7543913651223 468.34627775362736Q1192.7908495380611 472.825444242308 1199.717932596137 472.825444242308ZM1318.0252195616945 379.83065627092213L1318.0252195616945 379.83065627092213Q1323.1033443599079 379.83065627092213 1326.9314692077917 381.8879478558394Q1330.7856357213077 383.9712811063885 1332.9470939687524 387.25253097600336Q1335.1085522161973 390.5337808456182 1335.1085522161973 394.64836401545267L1335.1085522161973 394.64836401545267Q1335.1085522161973 399.33586382918816 1332.1918856654283 402.90357202075353Q1329.2752191146596 406.47128021231885 1324.405427641501 406.47128021231885L1324.405427641501 406.47128021231885Q1320.4731361310896 406.47128021231885 1317.4783445834253 403.91919698039624Q1314.4835530357611 401.3931554141054 1314.4835530357611 396.70565560036994L1314.4835530357611 396.70565560036994Q1314.4835530357611 393.13794740880456 1316.4366779581508 390.61190584251375Q1318.4158445461724 388.085864276223 1320.8377194499358 386.5754476695749L1320.8377194499358 386.5754476695749Q1319.5356361683425 384.7004477440807 1316.9054279395243 384.7004477440807L1316.9054279395243 384.7004477440807Q1311.0981365036187 384.7004477440807 1306.22834503046 388.19003093875045Q1301.3585535573015 391.65357246778836 1297.9731370251593 397.0962805848479Q1294.587720493017 402.5129470362756 1292.7127205675226 408.6066967941317Q1290.8377206420284 414.70044655198785 1290.8377206420284 419.96086300962435L1290.8377206420284 419.96086300962435L1290.8377206420284 459.70044476384857Q1290.8377206420284 468.8931527318965 1296.2023037621925 471.9921109420883Q1301.5408452167246 475.0910691522801 1310.7335531847725 475.0910691522801L1310.7335531847725 475.0910691522801L1310.7335531847725 479.0233606626915Q1306.4106366898832 478.8410690032685 1298.5460536690603 478.55461068131797Q1290.6554289826056 478.2681523593675 1281.8533459990356 478.2681523593675L1281.8533459990356 478.2681523593675Q1275.4731379192287 478.2681523593675 1269.1970965019498 478.55461068131797Q1262.9210550846703 478.8410690032685 1259.7179302119514 479.0233606626915L1259.7179302119514 479.0233606626915L1259.7179302119514 475.0910691522801Q1267.400221573351 475.0910691522801 1270.6814714429659 472.27856926403877Q1273.9627213125807 469.4660693757975 1273.9627213125807 461.57544468934276L1273.9627213125807 461.57544468934276L1273.9627213125807 402.90357202075353Q1273.9627213125807 394.46607235602966 1270.9679297649166 390.42961418309073Q1267.973138217252 386.39315601015187 1259.7179302119514 386.39315601015187L1259.7179302119514 386.39315601015187L1259.7179302119514 382.4608644997404Q1265.7335549729119 383.0337811436414 1271.3585547493944 383.0337811436414L1271.3585547493944 383.0337811436414Q1276.775221200822 383.0337811436414 1281.7491793365082 382.35669783721295Q1286.7231374721941 381.7056561964164 1290.8377206420284 380.40357291482314L1290.8377206420284 380.40357291482314L1290.8377206420284 403.8410719835006Q1292.9210538925777 398.39836386644106 1296.7491787404617 392.87753075248594Q1300.6033452539775 387.33065597289897 1306.046053371037 383.5806561219105Q1311.4627198224646 379.83065627092213 1318.0252195616945 379.83065627092213ZM1386.2804251828095 379.83065627092213L1386.2804251828095 379.83065627092213Q1392.2960499437702 379.83065627092213 1397.9210497202528 381.34107287757024Q1403.5460494967353 382.8254478185865 1408.025215985416 385.8462810318827L1408.025215985416 385.8462810318827Q1412.3481324803054 388.658780920124 1414.5877157246457 392.30461410858493Q1416.8533406346176 395.95044729704586 1416.8533406346176 400.27336379193525L1416.8533406346176 400.27336379193525Q1416.8533406346176 405.3254469245169 1414.0408407463765 408.05982181586256Q1411.2283408581352 410.7681550415764 1406.9054243632456 410.7681550415764L1406.9054243632456 410.7681550415764Q1402.7908411934116 410.7681550415764 1399.6918829832196 408.3462801378131Q1396.5929247730276 405.89836356841784 1396.5929247730276 401.3931554141054L1396.5929247730276 401.3931554141054Q1396.5929247730276 397.0962805848479 1398.9366746798953 394.46607235602966Q1401.280424586763 391.8358641272114 1404.4835494594824 391.08065582388735L1404.4835494594824 391.08065582388735Q1402.6085495339883 387.7212809573769 1397.8168830577254 385.4556560474047Q1393.0252165814625 383.21607280306443 1387.6085501300347 383.21607280306443L1387.6085501300347 383.21607280306443Q1382.9210503162992 383.21607280306443 1378.2335505025637 385.4556560474047Q1373.5460506888282 387.7212809573769 1369.587717512785 392.87753075248594Q1365.6554260023734 398.033780547595 1363.2335510986102 406.9400301936924Q1360.7856345292148 415.8462798397898 1360.7856345292148 429.1535709776723L1360.7856345292148 429.1535709776723Q1360.7856345292148 445.6379453226421 1364.5356343802034 455.403569934591Q1368.2856342311918 465.14315288090813 1374.379383989048 469.36190271327007Q1380.4731337469038 473.580652545632 1387.7908417894575 473.580652545632L1387.7908417894575 473.580652545632Q1392.660633262616 473.580652545632 1397.7127163951977 471.7056526201378Q1402.7908411934116 469.8306526946436 1407.2960493477237 465.6119028622817Q1411.7752158364044 461.39315302991974 1414.9783407091234 454.2837783124209L1414.9783407091234 454.2837783124209L1418.546048900689 455.5858615940141Q1416.6710489751947 461.57544468934276 1412.3481324803054 467.66919444719895Q1408.025215985416 473.762944205055 1401.0981329273402 477.7212773810984Q1394.1710498692644 481.6535688915098 1384.0408419384692 481.6535688915098L1384.0408419384692 481.6535688915098Q1372.400217401026 481.6535688915098 1363.0252177735551 475.6379441305493Q1353.6502181460844 469.64836103522055 1348.1293850321292 458.50252814478284Q1342.608551918174 447.33065358871323 1342.608551918174 431.9660708659136L1342.608551918174 431.9660708659136Q1342.608551918174 416.57544647748205 1348.1293850321292 404.85669694314333Q1353.6502181460844 393.13794740880456 1363.5981344174563 386.4973226726793Q1373.5460506888282 379.83065627092213 1386.2804251828095 379.83065627092213ZM1459.9783389209845 332.01815817082013L1459.9783389209845 332.01815817082013L1459.9783389209845 461.57544468934276Q1459.9783389209845 469.4660693757975 1462.7908388092255 472.27856926403877Q1465.6033386974666 475.0910691522801 1472.3481300961196 475.0910691522801L1472.3481300961196 475.0910691522801L1472.3481300961196 479.0233606626915Q1469.3533385484554 478.8410690032685 1463.4418804500222 478.55461068131797Q1457.530422351589 478.2681523593675 1451.5408392562604 478.2681523593675L1451.5408392562604 478.2681523593675Q1445.1606311764538 478.2681523593675 1438.598131437224 478.55461068131797Q1432.0356316979944 478.8410690032685 1428.858548490907 479.0233606626915L1428.858548490907 479.0233606626915L1428.858548490907 475.0910691522801Q1436.540839852307 475.0910691522801 1439.8220897219217 472.27856926403877Q1443.1033395915365 469.4660693757975 1443.1033395915365 461.57544468934276L1443.1033395915365 461.57544468934276L1443.1033395915365 354.51815727675046Q1443.1033395915365 346.0806576120266 1440.1085480438721 342.0441994390877Q1437.0877148305758 338.0337829317807 1428.858548490907 338.0337829317807L1428.858548490907 338.0337829317807L1428.858548490907 334.0754497557374Q1434.8481315862357 334.64836639963835 1440.4731313627183 334.64836639963835L1440.4731313627183 334.64836639963835Q1445.915839479778 334.64836639963835 1450.8897976154637 333.9973247588418Q1455.8377140855177 333.3462831180452 1459.9783389209845 332.01815817082013ZM1519.5877115523206 382.4608644997404L1519.5877115523206 382.4608644997404L1519.5877115523206 386.2108643507288Q1514.900211738585 386.5754476695749 1510.7856285687506 388.73690591701956Q1506.671045398916 390.8983641644643 1502.7127122228728 395.01294733429876L1502.7127122228728 395.01294733429876L1476.280421606531 422.77336289786564L1478.9106298353493 417.51294644022914L1513.780420116415 465.32544454033115Q1516.983544989134 469.64836103522055 1519.874169874271 472.0962776046158Q1522.79083642504 474.5181525083791 1526.9054195948743 475.0910691522801L1526.9054195948743 475.0910691522801L1526.9054195948743 479.0233606626915Q1524.848128009957 478.8410690032685 1520.4470865181722 478.55461068131797Q1516.046045026387 478.2681523593675 1511.7231285314977 478.2681523593675L1511.7231285314977 478.2681523593675Q1505.915837095592 478.2681523593675 1499.9002123346315 478.55461068131797Q1493.9106292393028 478.8410690032685 1490.9158376916384 479.0233606626915L1490.9158376916384 479.0233606626915L1490.9158376916384 475.0910691522801Q1494.6658375426268 475.0910691522801 1496.1502124836431 473.2160692267859Q1497.6606290902912 471.34106930129167 1495.603337505374 468.71086107247345L1495.603337505374 468.71086107247345L1474.0408383621905 437.2004456579182Q1470.4731301706254 432.1483625253366 1467.5564636198565 430.6379459186885Q1464.66583873472 429.1535709776723 1459.2231306176602 428.97127931824923L1459.2231306176602 428.97127931824923L1459.2231306176602 425.22127946726084Q1465.212713712989 424.4660711639368 1468.9627135639773 422.6691962353382Q1472.7127134149657 420.89836297237144 1476.098129947108 417.33065478080607L1476.098129947108 417.33065478080607L1489.9783377288913 402.90357202075353Q1495.96792082422 396.70565560036994 1495.96792082422 393.059822411909Q1495.96792082422 389.3879475578162 1492.139795976336 387.7994059542725Q1488.2856294628202 386.2108643507288 1482.0877130424367 386.2108643507288L1482.0877130424367 386.2108643507288L1482.0877130424367 382.4608644997404Q1486.9835461812272 382.6431561591635 1493.0772959390831 382.92961448111396Q1499.1710456969392 383.21607280306443 1503.2856288667738 383.21607280306443L1503.2856288667738 383.21607280306443Q1506.4627120738612 383.21607280306443 1509.4835452871573 383.11190614053703Q1512.478336834822 383.0337811436414 1515.1085450636401 382.8254478185865Q1517.7127116268264 382.6431561591635 1519.5877115523206 382.4608644997404Z " fill="#c05000" transform="matrix(0.5730544477341067,0,0,0.5730544477341067,0,66.75638858536863)"/></g></svg>